HIERARCHY
ROOT hip
{
  OFFSET 44.9929 86.6972 5.71506
  CHANNELS 6 Xposition Yposition Zposition Zrotation Xrotation Yrotation
  JOINT abdomen
  {
    OFFSET 0 20.6881 -0.73152
    CHANNELS 3 Zrotation Xrotation Yrotation
    JOINT chest
    {
      OFFSET 0 11.7043 -0.48768
      CHANNELS 3 Zrotation Xrotation Yrotation
      JOINT neck
      {
        OFFSET 0 22.1894 -2.19456
        CHANNELS 3 Zrotation Xrotation Yrotation
        JOINT head
        {
          OFFSET -0.24384 7.07133 1.2192
          CHANNELS 3 Zrotation Xrotation Yrotation
          JOINT leftEye
          {
            OFFSET 4.14528 8.04674 8.04672
            CHANNELS 3 Zrotation Xrotation Yrotation
            End Site
            {
              OFFSET 1 0 0
            }
          }
          JOINT rightEye
          {
            OFFSET -3.6576 8.04674 8.04672
            CHANNELS 3 Zrotation Xrotation Yrotation
            End Site
            {
              OFFSET 1 0 0
            }
          }
        }
      }
      JOINT rCollar
      {
        OFFSET -2.68224 19.2634 -4.8768
        CHANNELS 3 Zrotation Xrotation Yrotation
        JOINT rShldr
        {
          OFFSET -8.77824 -1.95073 1.46304
          CHANNELS 3 Zrotation Xrotation Yrotation
          JOINT rForeArm
          {
            OFFSET -28.1742 -1.7115 0.48768
            CHANNELS 3 Zrotation Xrotation Yrotation
            JOINT rHand
            {
              OFFSET -22.5879 0.773209 7.07136
              CHANNELS 3 Zrotation Xrotation Yrotation
              JOINT rThumb1
              {
                OFFSET -1.2192 -0.487915 3.41376
                CHANNELS 3 Zrotation Xrotation Yrotation
                JOINT rThumb2
                {
                  OFFSET -3.37035 -0.52449 3.41376
                  CHANNELS 3 Zrotation Xrotation Yrotation
                  End Site
                  {
                    OFFSET -1.78271 -1.18214 1.43049
                  }
                }
              }
              JOINT rIndex1
              {
                OFFSET -7.75947 0.938293 5.60832
                CHANNELS 3 Zrotation Xrotation Yrotation
                JOINT rIndex2
                {
                  OFFSET -2.54057 -0.884171 1.56538
                  CHANNELS 3 Zrotation Xrotation Yrotation
                  End Site
                  {
                    OFFSET -1.62519 -0.234802 1.16502
                  }
                }
              }
              JOINT rMid1
              {
                OFFSET -8.24714 1.18213 3.41376
                CHANNELS 3 Zrotation Xrotation Yrotation
                JOINT rMid2
                {
                  OFFSET -3.10165 -0.590103 1.0647
                  CHANNELS 3 Zrotation Xrotation Yrotation
                  End Site
                  {
                    OFFSET -2.48547 -0.328903 0.83742
                  }
                }
              }
              JOINT rRing1
              {
                OFFSET -8.82822 0.546677 1.51678
                CHANNELS 3 Zrotation Xrotation Yrotation
                JOINT rRing2
                {
                  OFFSET -2.60934 -0.819778 -0.0198488
                  CHANNELS 3 Zrotation Xrotation Yrotation
                  End Site
                  {
                    OFFSET -2.33842 -0.294052 0.168128
                  }
                }
              }
              JOINT rPinky1
              {
                OFFSET -8.27202 -0.0477905 -0.4584
                CHANNELS 3 Zrotation Xrotation Yrotation
                JOINT rPinky2
                {
                  OFFSET -1.82734 -0.647385 -0.700984
                  CHANNELS 3 Zrotation Xrotation Yrotation
                  End Site
                  {
                    OFFSET -1.69225 -0.51767 -0.607171
                  }
                }
              }
            }
          }
        }
      }
      JOINT lCollar
      {
        OFFSET 2.68224 19.2634 -4.8768
        CHANNELS 3 Zrotation Xrotation Yrotation
        JOINT lShldr
        {
          OFFSET 8.77824 -1.95073 1.46304
          CHANNELS 3 Zrotation Xrotation Yrotation
          JOINT lForeArm
          {
            OFFSET 28.1742 -1.7115 0.48768
            CHANNELS 3 Zrotation Xrotation Yrotation
            JOINT lHand
            {
              OFFSET 22.5879 0.773209 7.07136
              CHANNELS 3 Zrotation Xrotation Yrotation
              JOINT lThumb1
              {
                OFFSET 1.2192 -0.487915 3.41376
                CHANNELS 3 Zrotation Xrotation Yrotation
                JOINT lThumb2
                {
                  OFFSET 3.37035 -0.52449 3.41376
                  CHANNELS 3 Zrotation Xrotation Yrotation
                  End Site
                  {
                    OFFSET 1.78271 -1.18214 1.43049
                  }
                }
              }
              JOINT lIndex1
              {
                OFFSET 7.75947 0.938293 5.60832
                CHANNELS 3 Zrotation Xrotation Yrotation
                JOINT lIndex2
                {
                  OFFSET 2.54057 -0.884171 1.56538
                  CHANNELS 3 Zrotation Xrotation Yrotation
                  End Site
                  {
                    OFFSET 1.62519 -0.234802 1.16502
                  }
                }
              }
              JOINT lMid1
              {
                OFFSET 8.24714 1.18213 3.41376
                CHANNELS 3 Zrotation Xrotation Yrotation
                JOINT lMid2
                {
                  OFFSET 3.10165 -0.590103 1.0647
                  CHANNELS 3 Zrotation Xrotation Yrotation
                  End Site
                  {
                    OFFSET 2.48547 -0.328903 0.83742
                  }
                }
              }
              JOINT lRing1
              {
                OFFSET 8.82822 0.546677 1.51678
                CHANNELS 3 Zrotation Xrotation Yrotation
                JOINT lRing2
                {
                  OFFSET 2.60934 -0.819778 -0.0198488
                  CHANNELS 3 Zrotation Xrotation Yrotation
                  End Site
                  {
                    OFFSET 2.33842 -0.294052 0.168128
                  }
                }
              }
              JOINT lPinky1
              {
                OFFSET 8.27202 -0.0477905 -0.4584
                CHANNELS 3 Zrotation Xrotation Yrotation
                JOINT lPinky2
                {
                  OFFSET 1.82734 -0.647385 -0.700984
                  CHANNELS 3 Zrotation Xrotation Yrotation
                  End Site
                  {
                    OFFSET 1.69225 -0.51767 -0.607171
                  }
                }
              }
            }
          }
        }
      }
    }
  }
  JOINT rButtock
  {
    OFFSET -8.77824 4.35084 1.2192
    CHANNELS 3 Zrotation Xrotation Yrotation
    JOINT rThigh
    {
      OFFSET 0 -1.70687 -2.19456
      CHANNELS 3 Zrotation Xrotation Yrotation
      JOINT rShin
      {
        OFFSET 0 -36.8199 0.73152
        CHANNELS 3 Zrotation Xrotation Yrotation
        JOINT rFoot
        {
          OFFSET 0.73152 -45.1104 -5.12064
          CHANNELS 3 Zrotation Xrotation Yrotation
          End Site
          {
            OFFSET -1.1221 -3.69964 12.103
          }
        }
      }
    }
  }
  JOINT lButtock
  {
    OFFSET 8.77824 4.35084 1.2192
    CHANNELS 3 Zrotation Xrotation Yrotation
    JOINT lThigh
    {
      OFFSET 0 -1.70687 -2.19456
      CHANNELS 3 Zrotation Xrotation Yrotation
      JOINT lShin
      {
        OFFSET 0 -36.8199 0.73152
        CHANNELS 3 Zrotation Xrotation Yrotation
        JOINT lFoot
        {
          OFFSET -0.73152 -45.1104 -5.12064
          CHANNELS 3 Zrotation Xrotation Yrotation
          End Site
          {
            OFFSET 1.1221 -3.69964 12.103
          }
        }
      }
    }
  }
}
MOTION
Frames:	9
Frame Time:	0.00833333
62.5774 80.271 -11.508 -6.36733 -8.70783 102.217 3.57702 34.5121 -9.50957 0.219001 -10.7899 -2.63261 -14.0918 -9.70318 -10.7206 11.158 -8.94195 -14.3267 -0 0 0 -0 0 0 4.9837e-014 -7.3372e-013 1.48309e-013 61.7415 32.3234 19.7833 -17.2624 -9.9137 32.3893 -0.252332 -14.1582 -2.03174 -1.23651e-009 -4.72246e-011 3.63994e-010 -2.13885e-009 -7.63918e-011 6.16203e-010 -1.2365e-009 -4.72254e-011 3.63989e-010 7.73091 5.47488 0.417314 -1.23651e-009 -4.72274e-011 3.64004e-010 2.90554 0.965183 0.102902 -1.2365e-009 -4.72253e-011 3.63997e-010 10.2786 0.731801 0.0259123 -1.23651e-009 -4.72243e-011 3.64006e-010 2.22167 -0.733487 -0.20892 4.97853e-014 -7.33707e-013 1.4788e-013 -59.0529 41.0082 -12.673 21.4415 -14.9409 -42.3045 0.688632 -22.8834 3.40078 -1.38087e-009 2.52484e-010 6.95175e-010 -2.39941e-009 4.38601e-010 1.17735e-009 -1.38089e-009 2.5248e-010 6.95193e-010 -7.73091 5.47488 -0.417314 -1.38088e-009 2.52477e-010 6.95171e-010 -2.90554 0.965183 -0.102902 -1.3809e-009 2.52475e-010 6.95185e-010 -10.2786 0.731801 -0.0259123 -1.38087e-009 2.52478e-010 6.95166e-010 -2.22167 -0.733487 0.20892 -2.03217e-016 0 -3.88251e-019 -23.8161 -38.3464 -21.4606 -0.5935 51.8893 1.39277 -5.48551 -15.5764 -14.9565 2.03217e-016 0 3.88251e-019 23.2352 -26.3705 17.2201 0.212857 33.2703 -0.579329 2.01877 -1.32438 15.9448 
62.3754 80.4704 -11.3287 -6.4454 -8.82305 101.901 3.27214 34.0503 -9.27232 0.132859 -10.6124 -2.59874 -14.0027 -9.75112 -10.6854 10.9691 -8.80594 -14.3093 -0 0 0 -0 0 0 1.81937e-013 -1.61816e-012 2.68661e-013 61.6221 31.8928 19.7784 -17.1399 -9.78989 32.1208 -0.255774 -14.2516 -2.04572 -2.06464e-009 1.66983e-009 5.15201e-010 -3.56183e-009 2.90158e-009 8.66809e-010 -2.06463e-009 1.66983e-009 5.15193e-010 7.73091 5.47488 0.417314 -2.06464e-009 1.66982e-009 5.15218e-010 2.90554 0.965183 0.102902 -2.06463e-009 1.66983e-009 5.15204e-010 10.2786 0.731801 0.0259123 -2.06464e-009 1.66983e-009 5.15218e-010 2.22167 -0.733487 -0.20892 1.81919e-013 -1.61816e-012 2.68304e-013 -59.9177 40.4064 -12.1 21.3491 -14.8098 -42.0638 0.683991 -22.8122 3.38895 -2.54112e-009 5.80381e-011 2.27468e-009 -4.43865e-009 1.01755e-010 3.88777e-009 -2.54113e-009 5.80324e-011 2.27469e-009 -7.73091 5.47488 -0.417314 -2.54113e-009 5.80298e-011 2.27467e-009 -2.90554 0.965183 -0.102902 -2.54114e-009 5.80288e-011 2.27468e-009 -10.2786 0.731801 -0.0259123 -2.54112e-009 5.80314e-011 2.27467e-009 -2.22167 -0.733487 0.20892 -2.03217e-016 0 -3.88251e-019 -24.0129 -37.8537 -21.6018 -0.575137 51.2756 1.35673 -5.43582 -15.3864 -14.9175 2.03217e-016 0 3.88251e-019 22.4886 -25.6122 15.9337 0.176438 30.4732 -0.515402 1.86234 -0.802024 16.3909 
62.2075 80.6588 -11.1564 -6.51338 -8.7995 101.606 3.09057 33.642 -9.05464 0.0546699 -10.4767 -2.55851 -13.9048 -9.79502 -10.6473 10.754 -8.63036 -14.2946 -0 0 0 -0 0 0 2.54484e-013 -2.01328e-012 3.08663e-013 61.5437 31.4116 19.7656 -16.9928 -9.64338 31.7979 -0.256652 -14.2755 -2.0493 -2.40027e-009 2.64232e-009 5.33627e-010 -4.13695e-009 4.58758e-009 8.93995e-010 -2.40026e-009 2.64232e-009 5.33618e-010 7.73091 5.47488 0.417314 -2.40027e-009 2.64231e-009 5.33646e-010 2.90554 0.965183 0.102902 -2.40026e-009 2.64232e-009 5.33629e-010 10.2786 0.731801 0.0259123 -2.40027e-009 2.64232e-009 5.33646e-010 2.22167 -0.733487 -0.20892 2.54471e-013 -2.0133e-012 3.08365e-013 -60.7113 39.9599 -11.559 21.2682 -14.6955 -41.8552 0.67652 -22.6971 3.36985 -3.07592e-009 -6.81115e-011 3.09818e-009 -5.38082e-009 -1.1685e-010 5.30208e-009 -3.07593e-009 -6.81183e-011 3.0982e-009 -7.73091 5.47488 -0.417314 -3.07593e-009 -6.81207e-011 3.09818e-009 -2.90554 0.965183 -0.102902 -3.07593e-009 -6.8121e-011 3.09818e-009 -10.2786 0.731801 -0.0259123 -3.07591e-009 -6.81183e-011 3.09818e-009 -2.22167 -0.733487 0.20892 -2.03217e-016 0 -3.88251e-019 -24.0153 -37.3707 -21.5871 -0.557052 50.666 1.32354 -5.44905 -15.1752 -15.0639 2.03217e-016 0 3.88251e-019 21.9193 -24.9213 14.8266 0.150652 28.1648 -0.465705 1.73866 -0.40295 16.8001 
62.0157 80.8236 -10.9838 -6.57208 -8.5849 101.334 3.09752 33.3033 -8.86832 -0.026404 -10.3959 -2.51062 -13.7736 -9.86415 -10.5998 10.4596 -8.37001 -14.2809 -0 0 0 -0 0 0 2.30379e-013 -1.64808e-012 2.29403e-013 61.4979 30.8747 19.7633 -16.8059 -9.45936 31.39 -0.253987 -14.2038 -2.03856 -1.9577e-009 2.47721e-009 3.82496e-010 -3.37238e-009 4.29945e-009 6.37661e-010 -1.95769e-009 2.47721e-009 3.82487e-010 7.73091 5.47488 0.417314 -1.9577e-009 2.47721e-009 3.82512e-010 2.90554 0.965183 0.102902 -1.95769e-009 2.47721e-009 3.82497e-010 10.2786 0.731801 0.0259123 -1.9577e-009 2.47722e-009 3.82513e-010 2.22167 -0.733487 -0.20892 2.30315e-013 -1.64812e-012 2.29153e-013 -61.4226 39.7088 -11.0403 21.2014 -14.602 -41.6838 0.665358 -22.5222 3.34094 -2.65448e-009 -9.34209e-011 2.79119e-009 -4.64643e-009 -1.60875e-010 4.7786e-009 -2.65449e-009 -9.34286e-011 2.7912e-009 -7.73091 5.47488 -0.417314 -2.65448e-009 -9.34303e-011 2.79119e-009 -2.90554 0.965183 -0.102902 -2.65449e-009 -9.34301e-011 2.79119e-009 -10.2786 0.731801 -0.0259123 -2.65447e-009 -9.34267e-011 2.79119e-009 -2.22167 -0.733487 0.20892 -2.03217e-016 0 -3.88251e-019 -23.743 -36.9241 -21.3756 -0.539944 50.0935 1.29501 -5.56156 -14.9475 -15.4915 2.03217e-016 0 3.88251e-019 21.5741 -24.3091 13.9017 0.132338 26.4489 -0.429946 1.66395 -0.165154 17.183 
61.8251 80.9351 -10.7818 -6.63543 -8.25483 101.08 3.21291 32.9924 -8.68694 -0.105149 -10.3452 -2.45424 -13.6194 -9.9634 -10.5421 10.1006 -8.04069 -14.2595 -0 0 0 -0 0 0 1.47992e-013 -8.15662e-013 7.70415e-014 61.4788 30.2768 19.7623 -16.5918 -9.25066 30.9278 -0.249225 -14.0736 -2.01908 -1.03963e-009 1.65615e-009 1.17793e-010 -1.789e-009 2.87292e-009 1.90814e-010 -1.03962e-009 1.65615e-009 1.17786e-010 7.73091 5.47488 0.417314 -1.03963e-009 1.65614e-009 1.17802e-010 2.90554 0.965183 0.102902 -1.03962e-009 1.65615e-009 1.17793e-010 10.2786 0.731801 0.0259123 -1.03963e-009 1.65615e-009 1.17804e-010 2.22167 -0.733487 -0.20892 1.4784e-013 -8.15715e-013 7.68396e-014 -62.0682 39.622 -10.5658 21.1453 -14.524 -41.5391 0.652354 -22.3151 3.30683 -1.63776e-009 -7.05888e-011 1.80367e-009 -2.86891e-009 -1.21602e-010 3.08894e-009 -1.63777e-009 -7.05974e-011 1.80368e-009 -7.73091 5.47488 -0.417314 -1.63776e-009 -7.05981e-011 1.80367e-009 -2.90554 0.965183 -0.102902 -1.63777e-009 -7.05974e-011 1.80367e-009 -10.2786 0.731801 -0.0259123 -1.63775e-009 -7.0593e-011 1.80367e-009 -2.22167 -0.733487 0.20892 -2.03217e-016 0 -3.88251e-019 -23.3046 -36.5112 -21.0394 -0.52345 49.5355 1.26861 -5.72912 -14.6894 -16.0973 2.03217e-016 0 3.88251e-019 21.3559 -23.7487 13.0823 0.117824 25.0908 -0.401433 1.61046 0.0179153 17.5936 
61.6865 81.0173 -10.5638 -6.68588 -7.89204 100.839 3.34613 32.7053 -8.50093 -0.160889 -10.3133 -2.39283 -13.4896 -10.0232 -10.4893 9.78566 -7.73225 -14.2411 -0 0 0 -0 0 0 6.20234e-014 9.40241e-014 -9.54904e-014 61.5083 29.6333 19.7309 -16.3715 -9.03817 30.4581 -0.24355 -13.9159 -1.99554 -6.18473e-011 7.02217e-010 -2.19727e-010 -1.02806e-010 1.21608e-009 -3.81072e-010 -6.18404e-011 7.02215e-010 -2.19732e-010 7.73091 5.47488 0.417314 -6.18479e-011 7.02215e-010 -2.19725e-010 2.90554 0.965183 0.102902 -6.18393e-011 7.02217e-010 -2.19728e-010 10.2786 0.731801 0.0259123 -6.18464e-011 7.02217e-010 -2.1972e-010 2.22167 -0.733487 -0.20892 6.1789e-014 9.39559e-014 -9.56546e-014 -62.6853 39.6359 -10.1223 21.0981 -14.4587 -41.4171 0.638473 -22.0908 3.27 -4.99335e-010 -3.33157e-011 6.40775e-010 -8.77017e-010 -5.73346e-011 1.09818e-009 -4.99343e-010 -3.33245e-011 6.40782e-010 -7.73091 5.47488 -0.417314 -4.99338e-010 -3.33243e-011 6.40777e-010 -2.90554 0.965183 -0.102902 -4.99349e-010 -3.33232e-011 6.40776e-010 -10.2786 0.731801 -0.0259123 -4.99326e-010 -3.33179e-011 6.40771e-010 -2.22167 -0.733487 0.20892 -2.03217e-016 0 -3.88251e-019 -22.8167 -36.069 -20.6267 -0.505779 48.9351 1.24171 -5.89382 -14.4004 -16.7404 2.03217e-016 0 3.88251e-019 21.1882 -23.2585 12.3978 0.106868 24.0331 -0.378671 1.57334 0.154846 17.9659 
61.5326 81.1545 -10.2509 -6.70667 -7.57365 100.608 3.40688 32.4377 -8.30088 -0.172971 -10.2893 -2.32987 -13.4319 -9.97402 -10.4567 9.62383 -7.53462 -14.2358 -0 0 0 -0 0 0 2.71707e-014 6.91011e-013 -2.35262e-013 61.6069 28.9595 19.638 -16.1676 -8.84392 30.0272 -0.238067 -13.762 -1.97258 5.59835e-010 1.38517e-010 -5.89306e-010 9.70213e-010 2.37031e-010 -1.01252e-009 5.59842e-010 1.38516e-010 -5.89312e-010 7.73091 5.47488 0.417314 5.59835e-010 1.38517e-010 -5.89309e-010 2.90554 0.965183 0.102902 5.59844e-010 1.38518e-010 -5.89308e-010 10.2786 0.731801 0.0259123 5.59837e-010 1.38518e-010 -5.89303e-010 2.22167 -0.733487 -0.20892 2.6901e-014 6.90938e-013 -2.35411e-013 -63.3083 39.6866 -9.69896 21.0578 -14.4031 -41.3138 0.624604 -21.8643 3.23293 2.87233e-010 -1.53017e-011 -1.92344e-010 5.00491e-010 -2.63795e-011 -3.28628e-010 2.87226e-010 -1.531e-011 -1.92338e-010 -7.73091 5.47488 -0.417314 2.87231e-010 -1.53093e-011 -1.92341e-010 -2.90554 0.965183 -0.102902 2.8722e-010 -1.5308e-011 -1.92342e-010 -10.2786 0.731801 -0.0259123 2.87243e-010 -1.53024e-011 -1.92347e-010 -2.22167 -0.733487 0.20892 -2.03217e-016 0 -3.88251e-019 -22.3959 -35.5351 -20.1867 -0.485468 48.2354 1.212 -6.00002 -14.0811 -17.2805 2.03217e-016 0 3.88251e-019 20.9935 -22.8571 11.8772 0.0996604 23.2183 -0.36047 1.54804 0.254356 18.2338 
61.3302 81.3561 -9.82872 -6.68063 -7.31954 100.402 3.35857 32.2209 -8.07522 -0.124022 -10.2853 -2.26375 -13.4807 -9.75584 -10.4483 9.69161 -7.52328 -14.2379 -0 0 0 -0 0 0 7.59082e-014 8.89626e-013 -3.53196e-013 61.7676 28.2348 19.487 -15.982 -8.67029 29.6353 -0.232854 -13.6144 -1.9506 7.12583e-010 1.89111e-010 -1.11815e-009 1.23673e-009 3.24556e-010 -1.9249e-009 7.12591e-010 1.89112e-010 -1.11816e-009 7.73091 5.47488 0.417314 7.12583e-010 1.89111e-010 -1.11815e-009 2.90554 0.965183 0.102902 7.12592e-010 1.89111e-010 -1.11815e-009 10.2786 0.731801 0.0259123 7.12584e-010 1.89111e-010 -1.11814e-009 2.22167 -0.733487 -0.20892 7.56805e-014 8.89564e-013 -3.53368e-013 -63.943 39.7773 -9.31163 21.0242 -14.3569 -41.2284 0.610777 -21.6359 3.19566 6.2543e-010 -3.05915e-011 -6.00459e-010 1.09538e-009 -5.30463e-011 -1.02868e-009 6.25424e-010 -3.05977e-011 -6.00452e-010 -7.73091 5.47488 -0.417314 6.25428e-010 -3.05974e-011 -6.00455e-010 -2.90554 0.965183 -0.102902 6.25419e-010 -3.05962e-011 -6.00458e-010 -10.2786 0.731801 -0.0259123 6.2544e-010 -3.05913e-011 -6.00463e-010 -2.22167 -0.733487 0.20892 -2.03217e-016 0 -3.88251e-019 -22.0684 -34.8991 -19.7 -0.462775 47.4276 1.17955 -6.02867 -13.7277 -17.6683 2.03217e-016 0 3.88251e-019 20.7396 -22.561 11.5571 0.0964113 22.6974 -0.347285 1.53866 0.313304 18.3911 
61.1018 81.586 -9.3806 -6.62144 -7.08789 100.219 3.25308 32.0462 -7.8316 -0.028903 -10.3022 -2.19344 -13.6035 -9.41959 -10.4564 9.91515 -7.63311 -14.2446 -0 0 0 -0 0 0 1.73101e-013 8.91743e-013 -4.69178e-013 61.9796 27.4582 19.2936 -15.8049 -8.50738 29.2614 -0.227428 -13.4586 -1.92742 6.18809e-010 5.46824e-010 -1.78196e-009 1.07939e-009 9.45461e-010 -3.07351e-009 6.18819e-010 5.46828e-010 -1.78198e-009 7.73091 5.47488 0.417314 6.18809e-010 5.46823e-010 -1.78197e-009 2.90554 0.965183 0.102902 6.18818e-010 5.46824e-010 -1.78197e-009 10.2786 0.731801 0.0259123 6.18809e-010 5.46824e-010 -1.78196e-009 2.22167 -0.733487 -0.20892 1.72964e-013 8.91703e-013 -4.69399e-013 -64.5754 39.9362 -8.95801 20.9985 -14.3217 -41.1629 0.596644 -21.399 3.15713 7.579e-010 -5.95257e-011 -8.39824e-010 1.33205e-009 -1.03318e-010 -1.44073e-009 7.57896e-010 -5.95287e-011 -8.39816e-010 -7.73091 5.47488 -0.417314 7.57898e-010 -5.95294e-011 -8.39821e-010 -2.90554 0.965183 -0.102902 7.57892e-010 -5.95284e-011 -8.39825e-010 -10.2786 0.731801 -0.0259123 7.57909e-010 -5.95249e-011 -8.39831e-010 -2.22167 -0.733487 0.20892 -2.03217e-016 0 -3.88251e-019 -21.7813 -34.1896 -19.1565 -0.438785 46.54 1.14585 -6.01148 -13.342 -17.9831 2.03217e-016 0 3.88251e-019 20.4611 -22.3606 11.4076 0.0961096 22.4787 -0.339004 1.54735 0.329351 18.4691 
